<svg width="19" height="19" viewBox="0 0 19 19" fill="none" xmlns="http://www.w3.org/2000/svg">
<path d="M6.375 18.875H2.20833C1.0625 18.875 0.125 17.9375 0.125 16.7917V2.20833C0.125 1.0625 1.0625 0.125 2.20833 0.125H6.375C7.52083 0.125 8.45833 1.0625 8.45833 2.20833V16.7917C8.45833 17.9375 7.52083 18.875 6.375 18.875ZM12.625 18.875H16.7917C17.9375 18.875 18.875 17.9375 18.875 16.7917V11.5833C18.875 10.4375 17.9375 9.5 16.7917 9.5H12.625C11.4792 9.5 10.5417 10.4375 10.5417 11.5833V16.7917C10.5417 17.9375 11.4792 18.875 12.625 18.875ZM18.875 5.33333V2.20833C18.875 1.0625 17.9375 0.125 16.7917 0.125H12.625C11.4792 0.125 10.5417 1.0625 10.5417 2.20833V5.33333C10.5417 6.47917 11.4792 7.41667 12.625 7.41667H16.7917C17.9375 7.41667 18.875 6.47917 18.875 5.33333Z" fill="white"/>
</svg>
