<svg width="32" height="32" viewBox="0 0 32 32" fill="none" xmlns="http://www.w3.org/2000/svg">
<path d="M30.375 7.91406H20.375V3.5C20.375 2.80859 19.8164 2.25 19.125 2.25H3.1875V0.6875C3.1875 0.515625 3.04688 0.375 2.875 0.375H0.6875C0.515625 0.375 0.375 0.515625 0.375 0.6875V31.3125C0.375 31.4844 0.515625 31.625 0.6875 31.625H2.875C3.04688 31.625 3.1875 31.4844 3.1875 31.3125V21H12.875V25.4141C12.875 26.1055 13.4336 26.6641 14.125 26.6641H30.375C31.0664 26.6641 31.625 26.1055 31.625 25.4141V9.16406C31.625 8.47266 31.0664 7.91406 30.375 7.91406Z" fill="#696F79"/>
</svg>
