<svg width="17" height="21" viewBox="0 0 17 21" fill="none" xmlns="http://www.w3.org/2000/svg">
<path d="M1.20817 0.083313H15.7915C16.0678 0.083313 16.3327 0.19306 16.5281 0.38841C16.7234 0.58376 16.8332 0.848712 16.8332 1.12498V19.875C16.8332 20.1512 16.7234 20.4162 16.5281 20.6115C16.3327 20.8069 16.0678 20.9166 15.7915 20.9166H1.20817C0.931903 20.9166 0.666952 20.8069 0.471601 20.6115C0.276251 20.4162 0.166504 20.1512 0.166504 19.875V1.12498C0.166504 0.848712 0.276251 0.58376 0.471601 0.38841C0.666952 0.19306 0.931903 0.083313 1.20817 0.083313ZM5.37484 9.45831V6.33331L0.166504 10.5L5.37484 14.6666V11.5416H11.6248V9.45831H5.37484Z" fill="#8692A6"/>
</svg>
