<?xml version="1.0" encoding="iso-8859-1"?>
<!-- Generator: Adobe Illustrator 19.0.0, SVG Export Plug-In . SVG Version: 6.00 Build 0)  -->
<svg version="1.1" id="Layer_1" xmlns="http://www.w3.org/2000/svg" xmlns:xlink="http://www.w3.org/1999/xlink" x="0px" y="0px"
	 viewBox="0 0 512 512" style="enable-background:new 0 0 512 512;" xml:space="preserve">
<g>
	<path style="fill:#FFDD09;" d="M341.333,0v243.2l-68.267,55.467h4.267l83.627-51.2c3.413-2.56,5.973-6.827,5.973-11.947V16.213
		c0-8.533-6.827-15.36-15.36-15.36h-10.24V0z"/>
	<polygon style="fill:#FFDD09;" points="247.467,315.733 273.067,358.4 331.093,358.4 298.667,409.6 331.093,460.8 281.6,460.8 
		247.467,503.467 213.333,460.8 163.84,460.8 196.267,409.6 163.84,358.4 213.333,358.4 	"/>
	<polygon style="fill:#FFDD09;" points="179.2,102.4 179.2,8.533 315.733,8.533 315.733,238.933 243.2,307.2 251.733,307.2 
		179.2,238.933 179.2,153.6 	"/>
</g>
<polygon style="fill:#FFFFFF;" points="179.2,153.6 179.2,102.4 179.2,8.533 153.6,8.533 153.6,102.4 153.6,153.6 153.6,238.933 
	247.467,307.2 251.733,307.2 179.2,238.933 "/>
<polygon style="fill:#FD9808;" points="315.733,8.533 315.733,238.933 243.2,307.2 247.467,307.2 341.333,238.933 341.333,8.533 "/>
<polygon style="fill:#54C9FD;" points="247.467,307.2 247.467,307.2 281.6,281.6 281.6,8.533 213.333,8.533 213.333,281.6 "/>
<g>
	<path style="fill:#110E0E;" d="M247.467,315.733c-1.707,0-3.413-0.853-5.12-1.707L148.48,245.76
		c-1.707-0.853-3.413-3.413-3.413-6.827V128c0-5.12,3.413-8.533,8.533-8.533s8.533,3.413,8.533,8.533v106.667l85.333,62.293
		l85.333-62.293v-217.6H162.133v42.667c0,5.12-3.413,8.533-8.533,8.533s-8.533-3.413-8.533-8.533v-51.2
		c0-5.12,3.413-8.533,8.533-8.533h187.733c5.12,0,8.533,3.413,8.533,8.533v230.4c0,2.56-1.707,5.12-3.413,6.827l-93.867,68.267
		C250.88,315.733,249.173,315.733,247.467,315.733z"/>
	<path style="fill:#110E0E;" d="M162.133,93.867c0-5.12-3.413-8.533-8.533-8.533s-8.533,3.413-8.533,8.533s3.413,8.533,8.533,8.533
		S162.133,98.987,162.133,93.867"/>
	<path style="fill:#110E0E;" d="M247.467,315.733c-1.707,0-3.413-0.853-5.12-1.707l-34.133-24.747
		c-1.707-1.707-3.413-4.267-3.413-6.827V8.533c0-5.12,3.413-8.533,8.533-8.533H281.6c5.12,0,8.533,3.413,8.533,8.533v273.92
		c0,2.56-1.707,5.12-3.413,6.827l-34.133,24.747C250.88,315.733,249.173,315.733,247.467,315.733z M221.867,278.187l25.6,18.773
		l25.6-18.773V17.067h-51.2V278.187z"/>
	<path style="fill:#110E0E;" d="M247.467,512c-2.56,0-5.12-0.853-6.827-3.413l-31.573-39.253H163.84
		c-3.413,0-5.973-1.707-7.68-4.267s-1.707-5.973,0-8.533l29.867-46.933l-29.013-46.933c-1.707-2.56-1.707-5.973,0-8.533
		c0.853-2.56,4.267-4.267,6.827-4.267h45.227l31.573-39.253c1.707-2.56,4.267-3.413,6.827-3.413c2.56,0,5.12,1.707,6.827,4.267
		l23.04,38.4h52.907c3.413,0,5.973,1.707,7.68,4.267c1.707,2.56,1.707,5.973,0,8.533L308.907,409.6l29.013,46.933
		c1.707,2.56,1.707,5.973,0,8.533c-1.707,2.56-4.267,4.267-7.68,4.267h-45.227l-31.573,39.253
		C252.587,511.147,250.027,512,247.467,512z M179.2,452.267h34.133c2.56,0,5.12,0.853,6.827,3.413l27.307,34.133l27.307-34.133
		c1.707-1.707,4.267-3.413,6.827-3.413h34.133l-23.893-38.4c-1.707-2.56-1.707-5.973,0-9.387l23.893-37.547h-42.667
		c-3.413,0-5.973-1.707-7.68-4.267L245.76,330.24l-26.453,33.28c-0.853,2.56-3.413,3.413-5.973,3.413H179.2l23.893,38.4
		c1.707,2.56,1.707,5.973,0,9.387L179.2,452.267z"/>
</g>
<g>
</g>
<g>
</g>
<g>
</g>
<g>
</g>
<g>
</g>
<g>
</g>
<g>
</g>
<g>
</g>
<g>
</g>
<g>
</g>
<g>
</g>
<g>
</g>
<g>
</g>
<g>
</g>
<g>
</g>
</svg>
