<svg width="21" height="21" viewBox="0 0 21 21" fill="none" xmlns="http://www.w3.org/2000/svg">
<path d="M10.4167 20.9167C9.72585 20.914 9.06409 20.694 8.57437 20.3041C8.08466 19.9143 7.80632 19.386 7.79949 18.8334H13.0078C13.0106 19.1119 12.9442 19.3881 12.8125 19.6459C12.6441 19.955 12.3863 20.2276 12.0603 20.4413C11.7343 20.6551 11.3495 20.8037 10.9375 20.875H10.8763C10.725 20.9002 10.5712 20.9142 10.4167 20.9167ZM20.8334 17.7917H0V15.7084L2.60417 14.6667V8.93754C2.53557 7.46787 2.95044 6.00955 3.8073 4.70837C4.22896 4.11178 4.80395 3.59349 5.49434 3.18769C6.18473 2.7819 6.97483 2.49782 7.81251 2.35421V0.083374H13.0208V2.35421C16.3789 2.99379 18.2292 5.33129 18.2292 8.93754V14.6667L20.8334 15.7084V17.7917Z" fill="#696F79"/>
</svg>
