<svg width="36" height="36" viewBox="0 0 36 36" fill="none" xmlns="http://www.w3.org/2000/svg">
<path fill-rule="evenodd" clip-rule="evenodd" d="M17.9999 0.583344C8.38117 0.583344 0.583252 8.38126 0.583252 18C0.583252 27.6188 8.38117 35.4167 17.9999 35.4167C27.6187 35.4167 35.4166 27.6188 35.4166 18C35.4166 8.38126 27.6187 0.583344 17.9999 0.583344ZM25.5492 15.055C25.6883 14.8961 25.7941 14.711 25.8605 14.5106C25.9269 14.3102 25.9526 14.0985 25.936 13.8881C25.9194 13.6776 25.8609 13.4726 25.7639 13.285C25.6669 13.0975 25.5334 12.9313 25.3712 12.7961C25.209 12.661 25.0214 12.5596 24.8195 12.498C24.6175 12.4364 24.4053 12.4159 24.1953 12.4375C23.9853 12.4591 23.7817 12.5225 23.5966 12.624C23.4115 12.7255 23.2485 12.863 23.1173 13.0283L16.3089 21.1968L12.786 17.6723C12.4874 17.3838 12.0874 17.2243 11.6723 17.2279C11.2571 17.2315 10.86 17.398 10.5665 17.6915C10.2729 17.9851 10.1064 18.3822 10.1028 18.7974C10.0992 19.2125 10.2588 19.6125 10.5472 19.9111L15.2972 24.6611C15.4527 24.8166 15.639 24.9379 15.8441 25.0174C16.0491 25.0969 16.2685 25.1329 16.4883 25.1229C16.708 25.1129 16.9232 25.0572 17.1202 24.9595C17.3173 24.8617 17.4917 24.724 17.6326 24.555L25.5492 15.055Z" fill="#696F79"/>
</svg>
