<svg width="21" height="21" viewBox="0 0 21 21" fill="none" xmlns="http://www.w3.org/2000/svg">
<path d="M10.5002 0.083374C4.75641 0.083374 0.0834961 4.75629 0.0834961 10.5V14.8157C0.0834961 15.8823 1.01787 16.75 2.16683 16.75H3.2085C3.48476 16.75 3.74971 16.6403 3.94507 16.4449C4.14042 16.2496 4.25016 15.9846 4.25016 15.7084V10.3511C4.25016 10.0748 4.14042 9.80986 3.94507 9.61451C3.74971 9.41916 3.48476 9.30942 3.2085 9.30942H2.26266C2.84183 5.27817 6.31058 2.16671 10.5002 2.16671C14.6897 2.16671 18.1585 5.27817 18.7377 9.30942H17.7918C17.5156 9.30942 17.2506 9.41916 17.0553 9.61451C16.8599 9.80986 16.7502 10.0748 16.7502 10.3511V16.75C16.7502 17.899 15.8158 18.8334 14.6668 18.8334H12.5835V17.7917H8.41683V20.9167H14.6668C16.9647 20.9167 18.8335 19.048 18.8335 16.75C19.9825 16.75 20.9168 15.8823 20.9168 14.8157V10.5C20.9168 4.75629 16.2439 0.083374 10.5002 0.083374Z" fill="#696F79"/>
</svg>
